<svg width="129" height="149" viewBox="0 0 129 149" fill="none" xmlns="http://www.w3.org/2000/svg">
<g clip-path="url(#clip0_44_15)">
<path d="M28.9603 6.22289C36.852 2.70382 44.1857 0.930868 54.5384 0.0391516C55.017 -0.00197822 58.3938 -0.0124515 62.0426 0.0161108C69.5062 0.0745685 71.9115 0.31068 77.6488 1.54781C89.7158 4.15022 99.2695 9.5306 107.058 18.11C108.673 19.8902 111.332 23.3913 115.441 29.1502C117.085 31.4543 119.434 34.5819 120.661 36.1005C123.359 39.4392 123.599 39.8371 123.599 40.9542C123.599 42.5231 122.6 43.7342 120.66 44.5169C119.683 44.9114 119.262 44.954 116.421 44.9477C114.02 44.9424 112.697 44.8378 110.875 44.5098C102.337 42.9722 91.7687 39.3274 85.2501 35.6722C83.0844 34.4578 80.334 32.5498 76.2898 29.4564C68.3736 23.4016 62.4274 21.2501 53.6049 21.2486C48.8252 21.2478 45.1993 21.9411 41.5479 23.5541C29.2523 28.986 25.3039 41.8819 32.8692 51.9011C35.1255 54.8897 39.2579 57.696 44.2298 59.6169C50.7578 62.1388 58.1948 64.0254 76.181 67.7222C97.7425 72.1535 104.808 74.3799 112.288 79.0984C115.082 80.8611 119.777 84.9262 121.566 87.1318C126.332 93.0083 128.673 99.121 128.97 106.459C129.225 112.818 127.857 118.64 124.79 124.232C118.049 136.524 103.179 145.004 83.3589 147.857C71.4902 149.566 56.1828 149.343 44.6144 147.292C17.7719 142.533 0.563578 123.943 0 102.508C0 102.508 9.57912 119.872 25.5445 126.034C41.5099 132.195 53.6436 133.316 66.4158 132.195C79.1881 131.075 91.9075 124.123 95.1535 119.312C96.9761 116.611 97.5139 109.667 97.0785 106.694C96.3269 101.564 92.8831 97.8918 86.3258 95.2281C82.7678 93.7826 78.5311 92.6838 68.6768 90.6504C53.3402 87.4856 48.112 86.2627 41.0525 84.1891C32.7116 81.7388 26.7619 79.2261 21.2856 75.8409C9.26557 68.4107 2.39974 58.5302 1.14665 46.8589C-0.678072 29.8664 9.59379 14.859 28.9603 6.22289Z" fill="#29A367"/>
</g>
<defs>
<clipPath id="clip0_44_15">
<rect width="129" height="149" fill="white"/>
</clipPath>
</defs>
</svg>
