<svg width="626" height="170" viewBox="0 0 626 170" fill="none" xmlns="http://www.w3.org/2000/svg">
<path d="M165.911 133.204C159.571 133.204 154.114 131.92 149.539 129.352C144.991 126.757 141.487 123.092 139.026 118.357C136.564 113.595 135.334 107.963 135.334 101.463C135.334 95.1225 136.564 89.5581 139.026 84.7695C141.487 79.9809 144.951 76.2491 149.419 73.5739C153.913 70.8987 159.183 69.5611 165.229 69.5611C169.295 69.5611 173.081 70.2165 176.585 71.5273C180.116 72.8114 183.193 74.7509 185.815 77.3459C188.463 79.9408 190.523 83.2045 191.994 87.1371C193.466 91.0428 194.201 95.6174 194.201 100.861V105.556H142.156V94.962H178.11C178.11 92.5008 177.575 90.3205 176.505 88.4212C175.435 86.5218 173.95 85.037 172.051 83.967C170.178 82.8701 167.998 82.3217 165.51 82.3217C162.915 82.3217 160.614 82.9236 158.608 84.1275C156.628 85.3046 155.077 86.8963 153.953 88.9027C152.83 90.8823 152.254 93.0894 152.228 95.5238V105.596C152.228 108.646 152.789 111.281 153.913 113.501C155.063 115.721 156.682 117.434 158.768 118.637C160.855 119.841 163.33 120.443 166.192 120.443C168.092 120.443 169.83 120.176 171.409 119.641C172.987 119.106 174.338 118.303 175.462 117.233C176.585 116.163 177.441 114.852 178.03 113.3L193.84 114.344C193.038 118.143 191.392 121.46 188.904 124.295C186.443 127.104 183.26 129.298 179.354 130.876C175.475 132.428 170.994 133.204 165.911 133.204ZM205.357 132V70.3636H221.93V81.1179H222.572C223.695 77.2924 225.581 74.4032 228.23 72.4503C230.878 70.4706 233.928 69.4808 237.379 69.4808C238.235 69.4808 239.158 69.5343 240.148 69.6413C241.138 69.7483 242.007 69.8955 242.756 70.0827V85.2511C241.953 85.0103 240.843 84.7963 239.425 84.609C238.008 84.4218 236.71 84.3281 235.533 84.3281C233.018 84.3281 230.771 84.8765 228.792 85.9734C226.839 87.0434 225.287 88.5415 224.137 90.4677C223.013 92.3938 222.451 94.6142 222.451 97.1289V132H205.357ZM267.405 133.164C263.472 133.164 259.968 132.482 256.891 131.117C253.815 129.726 251.38 127.68 249.588 124.978C247.822 122.249 246.939 118.851 246.939 114.785C246.939 111.361 247.568 108.485 248.825 106.158C250.083 103.83 251.795 101.958 253.962 100.54C256.129 99.1219 258.59 98.0518 261.345 97.3295C264.127 96.6072 267.043 96.099 270.093 95.8047C273.678 95.4302 276.567 95.0824 278.761 94.7614C280.954 94.4136 282.546 93.9053 283.536 93.2365C284.526 92.5677 285.021 91.5779 285.021 90.267V90.0263C285.021 87.4848 284.218 85.5186 282.613 84.1275C281.035 82.7364 278.787 82.0408 275.872 82.0408C272.795 82.0408 270.347 82.723 268.528 84.0874C266.709 85.425 265.505 87.1103 264.917 89.1435L249.106 87.8594C249.909 84.1141 251.487 80.8771 253.841 78.1484C256.196 75.393 259.232 73.2796 262.95 71.8082C266.696 70.3101 271.029 69.5611 275.952 69.5611C279.376 69.5611 282.653 69.9624 285.783 70.7649C288.94 71.5675 291.735 72.8114 294.17 74.4968C296.631 76.1822 298.571 78.3491 299.988 80.9975C301.406 83.6192 302.115 86.7625 302.115 90.4276V132H285.904V123.453H285.422C284.432 125.379 283.108 127.078 281.449 128.549C279.791 129.994 277.798 131.131 275.47 131.96C273.143 132.762 270.454 133.164 267.405 133.164ZM272.3 121.366C274.815 121.366 277.035 120.871 278.961 119.881C280.888 118.865 282.399 117.5 283.496 115.788C284.593 114.076 285.141 112.137 285.141 109.97V103.429C284.606 103.777 283.87 104.098 282.934 104.392C282.024 104.66 280.995 104.914 279.844 105.154C278.694 105.368 277.544 105.569 276.393 105.756C275.243 105.917 274.2 106.064 273.263 106.198C271.257 106.492 269.505 106.96 268.006 107.602C266.508 108.244 265.345 109.114 264.515 110.211C263.686 111.281 263.271 112.618 263.271 114.223C263.271 116.551 264.114 118.33 265.799 119.56C267.512 120.764 269.678 121.366 272.3 121.366ZM315.377 155.114V70.3636H332.231V80.7166H332.994C333.743 79.058 334.826 77.3726 336.244 75.6605C337.688 73.9216 339.561 72.477 341.862 71.3267C344.189 70.1496 347.078 69.5611 350.529 69.5611C355.024 69.5611 359.17 70.7382 362.969 73.0923C366.768 75.4197 369.804 78.9376 372.078 83.646C374.352 88.3275 375.489 94.1996 375.489 101.262C375.489 108.137 374.379 113.942 372.158 118.678C369.965 123.386 366.968 126.957 363.17 129.392C359.398 131.799 355.171 133.003 350.489 133.003C347.172 133.003 344.35 132.455 342.022 131.358C339.722 130.261 337.836 128.883 336.364 127.225C334.893 125.539 333.769 123.841 332.994 122.129H332.472V155.114H315.377ZM332.111 101.182C332.111 104.847 332.619 108.044 333.636 110.772C334.652 113.501 336.123 115.628 338.05 117.153C339.976 118.651 342.317 119.4 345.072 119.4C347.854 119.4 350.208 118.637 352.134 117.113C354.061 115.561 355.519 113.421 356.508 110.692C357.525 107.937 358.033 104.767 358.033 101.182C358.033 97.6238 357.538 94.4938 356.549 91.7919C355.559 89.09 354.101 86.9766 352.175 85.4517C350.248 83.9268 347.881 83.1644 345.072 83.1644C342.29 83.1644 339.936 83.9001 338.009 85.3714C336.11 86.8428 334.652 88.9294 333.636 91.6314C332.619 94.3333 332.111 97.5168 332.111 101.182ZM403.98 96.3665V132H386.885V49.8182H403.498V81.2383H404.22C405.612 77.6 407.859 74.7509 410.962 72.691C414.065 70.6044 417.958 69.5611 422.639 69.5611C426.919 69.5611 430.651 70.4974 433.835 72.37C437.045 74.2159 439.533 76.8777 441.299 80.3555C443.091 83.8065 443.974 87.9396 443.947 92.755V132H426.853V95.8047C426.879 92.0059 425.916 89.0498 423.963 86.9364C422.037 84.823 419.335 83.7663 415.858 83.7663C413.53 83.7663 411.47 84.2612 409.678 85.2511C407.912 86.2409 406.521 87.6855 405.505 89.5849C404.515 91.4575 404.006 93.718 403.98 96.3665ZM457.4 132V70.3636H474.494V132H457.4ZM465.987 62.4183C463.446 62.4183 461.266 61.5756 459.446 59.8903C457.654 58.1781 456.758 56.1316 456.758 53.7507C456.758 51.3965 457.654 49.3768 459.446 47.6914C461.266 45.9793 463.446 45.1232 465.987 45.1232C468.529 45.1232 470.696 45.9793 472.488 47.6914C474.307 49.3768 475.217 51.3965 475.217 53.7507C475.217 56.1316 474.307 58.1781 472.488 59.8903C470.696 61.5756 468.529 62.4183 465.987 62.4183ZM505.282 96.3665V132H488.188V70.3636H504.48V81.2383H505.202C506.566 77.6535 508.854 74.8178 512.064 72.7312C515.274 70.6178 519.167 69.5611 523.741 69.5611C528.022 69.5611 531.753 70.4974 534.937 72.37C538.12 74.2427 540.595 76.9178 542.361 80.3956C544.126 83.8466 545.009 87.9664 545.009 92.755V132H527.915V95.8047C527.941 92.0327 526.978 89.09 525.025 86.9766C523.072 84.8364 520.384 83.7663 516.96 83.7663C514.659 83.7663 512.626 84.2612 510.86 85.2511C509.121 86.2409 507.757 87.6855 506.767 89.5849C505.804 91.4575 505.309 93.718 505.282 96.3665ZM586.571 133.204C580.231 133.204 574.774 131.92 570.199 129.352C565.651 126.757 562.147 123.092 559.686 118.357C557.225 113.595 555.994 107.963 555.994 101.463C555.994 95.1225 557.225 89.5581 559.686 84.7695C562.147 79.9809 565.611 76.2491 570.079 73.5739C574.573 70.8987 579.843 69.5611 585.889 69.5611C589.955 69.5611 593.741 70.2165 597.245 71.5273C600.777 72.8114 603.853 74.7509 606.475 77.3459C609.123 79.9408 611.183 83.2045 612.654 87.1371C614.126 91.0428 614.862 95.6174 614.862 100.861V105.556H562.816V94.962H598.77C598.77 92.5008 598.235 90.3205 597.165 88.4212C596.095 86.5218 594.61 85.037 592.711 83.967C590.838 82.8701 588.658 82.3217 586.17 82.3217C583.575 82.3217 581.275 82.9236 579.268 84.1275C577.288 85.3046 575.737 86.8963 574.613 88.9027C573.49 90.8823 572.915 93.0894 572.888 95.5238V105.596C572.888 108.646 573.45 111.281 574.573 113.501C575.723 115.721 577.342 117.434 579.429 118.637C581.515 119.841 583.99 120.443 586.852 120.443C588.752 120.443 590.491 120.176 592.069 119.641C593.647 119.106 594.998 118.303 596.122 117.233C597.245 116.163 598.101 114.852 598.69 113.3L614.5 114.344C613.698 118.143 612.053 121.46 609.565 124.295C607.103 127.104 603.92 129.298 600.014 130.876C596.135 132.428 591.654 133.204 586.571 133.204Z" fill="white"/>
<path d="M36.8174 20.5547C43.8526 17.4135 50.3904 15.8309 59.6196 15.0349C60.0462 14.9982 63.0566 14.9889 66.3094 15.0144C72.963 15.0666 75.1072 15.2773 80.2219 16.3816C90.9793 18.7046 99.4961 23.5072 106.439 31.1653C107.88 32.7543 110.25 35.8795 113.913 41.02C115.378 43.0767 117.472 45.8684 118.566 47.2239C120.971 50.2041 121.185 50.5593 121.185 51.5564C121.185 52.9569 120.295 54.0379 118.565 54.7366C117.694 55.0887 117.319 55.1267 114.786 55.1211C112.646 55.1164 111.466 55.023 109.842 54.7302C102.231 53.3577 92.8094 50.1043 86.9982 46.8416C85.0676 45.7576 82.6157 44.0545 79.0104 41.2933C71.9533 35.8887 66.6524 33.9682 58.7874 33.9669C54.5264 33.9662 51.294 34.585 48.0389 36.0248C37.0777 40.8734 33.5578 52.3845 40.3021 61.3278C42.3135 63.9955 45.9974 66.5005 50.4297 68.2151C56.2493 70.4662 62.8792 72.1502 78.9134 75.45C98.1349 79.4055 104.434 81.3928 111.102 85.6046C113.593 87.178 117.778 90.8066 119.373 92.7754C123.622 98.0208 125.709 103.477 125.973 110.027C126.201 115.703 124.981 120.9 122.247 125.892C116.238 136.864 102.981 144.433 85.3123 146.98C74.7316 148.505 61.0855 148.306 50.7726 146.475C26.8432 142.227 11.5025 125.634 11.0001 106.5C11.0001 106.5 19.5396 122 33.7723 127.5C48.005 133 58.8219 134 70.208 133C81.5941 132 92.9331 125.794 95.8268 121.5C97.4516 119.089 97.9311 112.891 97.5429 110.237C96.8729 105.658 93.8028 102.38 87.9572 100.002C84.7853 98.712 81.0084 97.7312 72.2236 95.9161C58.5514 93.0912 53.8906 91.9996 47.5973 90.1487C40.1616 87.9615 34.8576 85.7186 29.9756 82.6969C19.2601 76.0646 13.1394 67.2451 12.0223 56.8271C10.3956 41.6593 19.5527 28.2634 36.8174 20.5547Z" fill="#29A367"/>
</svg>
