<svg width="609" height="141" viewBox="0 0 609 141" fill="none" xmlns="http://www.w3.org/2000/svg">
<path d="M154.911 118.204C148.571 118.204 143.114 116.92 138.539 114.352C133.991 111.757 130.487 108.092 128.026 103.357C125.564 98.5947 124.334 92.9634 124.334 86.4627C124.334 80.1225 125.564 74.5581 128.026 69.7695C130.487 64.9809 133.951 61.2491 138.419 58.5739C142.913 55.8987 148.183 54.5611 154.229 54.5611C158.295 54.5611 162.081 55.2165 165.585 56.5273C169.116 57.8114 172.193 59.7509 174.815 62.3459C177.463 64.9408 179.523 68.2045 180.994 72.1371C182.466 76.0428 183.201 80.6174 183.201 85.8608V90.5558H131.156V79.962H167.11C167.11 77.5008 166.575 75.3205 165.505 73.4212C164.435 71.5218 162.95 70.037 161.051 68.967C159.178 67.8701 156.998 67.3217 154.51 67.3217C151.915 67.3217 149.614 67.9236 147.608 69.1275C145.628 70.3046 144.077 71.8963 142.953 73.9027C141.83 75.8823 141.254 78.0894 141.228 80.5238V90.5959C141.228 93.6456 141.789 96.2807 142.913 98.5011C144.063 100.721 145.682 102.434 147.768 103.637C149.855 104.841 152.33 105.443 155.192 105.443C157.092 105.443 158.83 105.176 160.409 104.641C161.987 104.106 163.338 103.303 164.462 102.233C165.585 101.163 166.441 99.852 167.03 98.3004L182.84 99.3438C182.038 103.143 180.392 106.46 177.904 109.295C175.443 112.104 172.26 114.298 168.354 115.876C164.475 117.428 159.994 118.204 154.911 118.204ZM194.357 117V55.3636H210.93V66.1179H211.572C212.695 62.2924 214.581 59.4032 217.23 57.4503C219.878 55.4706 222.928 54.4808 226.379 54.4808C227.235 54.4808 228.158 54.5343 229.148 54.6413C230.138 54.7483 231.007 54.8955 231.756 55.0827V70.2511C230.953 70.0103 229.843 69.7963 228.425 69.609C227.008 69.4218 225.71 69.3281 224.533 69.3281C222.018 69.3281 219.771 69.8765 217.792 70.9734C215.839 72.0434 214.287 73.5415 213.137 75.4677C212.013 77.3938 211.451 79.6142 211.451 82.1289V117H194.357ZM256.405 118.164C252.472 118.164 248.968 117.482 245.891 116.117C242.815 114.726 240.38 112.68 238.588 109.978C236.822 107.249 235.939 103.851 235.939 99.7852C235.939 96.3609 236.568 93.4851 237.825 91.1577C239.083 88.8303 240.795 86.9576 242.962 85.5398C245.129 84.1219 247.59 83.0518 250.345 82.3295C253.127 81.6072 256.043 81.099 259.093 80.8047C262.678 80.4302 265.567 80.0824 267.761 79.7614C269.954 79.4136 271.546 78.9053 272.536 78.2365C273.526 77.5677 274.021 76.5779 274.021 75.267V75.0263C274.021 72.4848 273.218 70.5186 271.613 69.1275C270.035 67.7364 267.787 67.0408 264.872 67.0408C261.795 67.0408 259.347 67.723 257.528 69.0874C255.709 70.425 254.505 72.1103 253.917 74.1435L238.106 72.8594C238.909 69.1141 240.487 65.8771 242.841 63.1484C245.196 60.393 248.232 58.2796 251.95 56.8082C255.696 55.3101 260.029 54.5611 264.952 54.5611C268.376 54.5611 271.653 54.9624 274.783 55.7649C277.94 56.5675 280.735 57.8114 283.17 59.4968C285.631 61.1822 287.571 63.3491 288.988 65.9975C290.406 68.6192 291.115 71.7625 291.115 75.4276V117H274.904V108.453H274.422C273.432 110.379 272.108 112.078 270.449 113.549C268.791 114.994 266.798 116.131 264.47 116.96C262.143 117.762 259.454 118.164 256.405 118.164ZM261.3 106.366C263.815 106.366 266.035 105.871 267.961 104.881C269.888 103.865 271.399 102.5 272.496 100.788C273.593 99.0762 274.141 97.1367 274.141 94.9698V88.429C273.606 88.7768 272.87 89.0978 271.934 89.392C271.024 89.6596 269.995 89.9137 268.844 90.1545C267.694 90.3685 266.544 90.5691 265.393 90.7564C264.243 90.9169 263.2 91.064 262.263 91.1978C260.257 91.4921 258.505 91.9602 257.006 92.6023C255.508 93.2443 254.345 94.1138 253.515 95.2106C252.686 96.2807 252.271 97.6183 252.271 99.2234C252.271 101.551 253.114 103.33 254.799 104.56C256.512 105.764 258.678 106.366 261.3 106.366ZM304.377 140.114V55.3636H321.231V65.7166H321.994C322.743 64.058 323.826 62.3726 325.244 60.6605C326.688 58.9216 328.561 57.477 330.862 56.3267C333.189 55.1496 336.078 54.5611 339.529 54.5611C344.024 54.5611 348.17 55.7382 351.969 58.0923C355.768 60.4197 358.804 63.9376 361.078 68.646C363.352 73.3275 364.489 79.1996 364.489 86.2621C364.489 93.1373 363.379 98.9425 361.158 103.678C358.965 108.386 355.968 111.957 352.17 114.392C348.398 116.799 344.171 118.003 339.489 118.003C336.172 118.003 333.35 117.455 331.022 116.358C328.722 115.261 326.836 113.883 325.364 112.225C323.893 110.539 322.769 108.841 321.994 107.129H321.472V140.114H304.377ZM321.111 86.1818C321.111 89.8468 321.619 93.0437 322.636 95.7724C323.652 98.5011 325.123 100.628 327.05 102.153C328.976 103.651 331.317 104.4 334.072 104.4C336.854 104.4 339.208 103.637 341.134 102.113C343.061 100.561 344.519 98.4208 345.508 95.6921C346.525 92.9367 347.033 89.7666 347.033 86.1818C347.033 82.6238 346.538 79.4938 345.549 76.7919C344.559 74.09 343.101 71.9766 341.175 70.4517C339.248 68.9268 336.881 68.1644 334.072 68.1644C331.29 68.1644 328.936 68.9001 327.009 70.3714C325.11 71.8428 323.652 73.9294 322.636 76.6314C321.619 79.3333 321.111 82.5168 321.111 86.1818ZM392.98 81.3665V117H375.885V34.8182H392.498V66.2383H393.22C394.612 62.6 396.859 59.7509 399.962 57.691C403.065 55.6044 406.958 54.5611 411.639 54.5611C415.919 54.5611 419.651 55.4974 422.835 57.37C426.045 59.2159 428.533 61.8777 430.299 65.3555C432.091 68.8065 432.974 72.9396 432.947 77.755V117H415.853V80.8047C415.879 77.0059 414.916 74.0498 412.963 71.9364C411.037 69.823 408.335 68.7663 404.858 68.7663C402.53 68.7663 400.47 69.2612 398.678 70.2511C396.912 71.2409 395.521 72.6855 394.505 74.5849C393.515 76.4575 393.006 78.718 392.98 81.3665ZM446.4 117V55.3636H463.494V117H446.4ZM454.987 47.4183C452.446 47.4183 450.266 46.5756 448.446 44.8903C446.654 43.1781 445.758 41.1316 445.758 38.7507C445.758 36.3965 446.654 34.3768 448.446 32.6914C450.266 30.9793 452.446 30.1232 454.987 30.1232C457.529 30.1232 459.696 30.9793 461.488 32.6914C463.307 34.3768 464.217 36.3965 464.217 38.7507C464.217 41.1316 463.307 43.1781 461.488 44.8903C459.696 46.5756 457.529 47.4183 454.987 47.4183ZM494.282 81.3665V117H477.188V55.3636H493.48V66.2383H494.202C495.566 62.6535 497.854 59.8178 501.064 57.7312C504.274 55.6178 508.167 54.5611 512.741 54.5611C517.022 54.5611 520.753 55.4974 523.937 57.37C527.12 59.2427 529.595 61.9178 531.361 65.3956C533.126 68.8466 534.009 72.9664 534.009 77.755V117H516.915V80.8047C516.941 77.0327 515.978 74.09 514.025 71.9766C512.072 69.8364 509.384 68.7663 505.96 68.7663C503.659 68.7663 501.626 69.2612 499.86 70.2511C498.121 71.2409 496.757 72.6855 495.767 74.5849C494.804 76.4575 494.309 78.718 494.282 81.3665ZM575.571 118.204C569.231 118.204 563.774 116.92 559.199 114.352C554.651 111.757 551.147 108.092 548.686 103.357C546.225 98.5947 544.994 92.9634 544.994 86.4627C544.994 80.1225 546.225 74.5581 548.686 69.7695C551.147 64.9809 554.611 61.2491 559.079 58.5739C563.573 55.8987 568.843 54.5611 574.889 54.5611C578.955 54.5611 582.741 55.2165 586.245 56.5273C589.777 57.8114 592.853 59.7509 595.475 62.3459C598.123 64.9408 600.183 68.2045 601.654 72.1371C603.126 76.0428 603.862 80.6174 603.862 85.8608V90.5558H551.816V79.962H587.77C587.77 77.5008 587.235 75.3205 586.165 73.4212C585.095 71.5218 583.61 70.037 581.711 68.967C579.838 67.8701 577.658 67.3217 575.17 67.3217C572.575 67.3217 570.275 67.9236 568.268 69.1275C566.288 70.3046 564.737 71.8963 563.613 73.9027C562.49 75.8823 561.915 78.0894 561.888 80.5238V90.5959C561.888 93.6456 562.45 96.2807 563.573 98.5011C564.723 100.721 566.342 102.434 568.429 103.637C570.515 104.841 572.99 105.443 575.852 105.443C577.752 105.443 579.491 105.176 581.069 104.641C582.647 104.106 583.998 103.303 585.122 102.233C586.245 101.163 587.101 99.852 587.69 98.3004L603.5 99.3438C602.698 103.143 601.053 106.46 598.565 109.295C596.103 112.104 592.92 114.298 589.014 115.876C585.135 117.428 580.654 118.204 575.571 118.204Z" fill="white"/>
<path d="M25.8174 5.55466C32.8526 2.41348 39.3904 0.830909 48.6196 0.0349474C49.0462 -0.00176579 52.0566 -0.0111144 55.3094 0.0143808C61.963 0.0665611 64.1072 0.277318 69.2219 1.3816C79.9793 3.70456 88.4961 8.50718 95.439 16.1653C96.8795 17.7543 99.2496 20.8795 102.913 26.02C104.378 28.0767 106.472 30.8684 107.566 32.2239C109.971 35.2041 110.185 35.5593 110.185 36.5564C110.185 37.9569 109.295 39.0379 107.565 39.7366C106.694 40.0887 106.319 40.1267 103.786 40.1211C101.646 40.1164 100.466 40.023 98.8417 39.7302C91.2306 38.3577 81.8094 35.1043 75.9982 31.8416C74.0676 30.7576 71.6157 29.0545 68.0104 26.2933C60.9533 20.8887 55.6524 18.9682 47.7874 18.9669C43.5264 18.9662 40.294 19.585 37.0389 21.0248C26.0777 25.8734 22.5578 37.3845 29.3021 46.3278C31.3135 48.9955 34.9974 51.5005 39.4297 53.2151C45.2493 55.4662 51.8792 57.1502 67.9134 60.45C87.1349 64.4055 93.434 66.3928 100.102 70.6046C102.593 72.178 106.778 75.8066 108.373 77.7754C112.622 83.0208 114.709 88.4771 114.973 95.0272C115.201 100.703 113.981 105.9 111.247 110.892C105.238 121.864 91.9814 129.433 74.3123 131.98C63.7316 133.505 50.0855 133.306 39.7726 131.475C15.8432 127.227 0.502489 110.634 7.46222e-05 91.5C7.46222e-05 91.5 8.5396 107 22.7723 112.5C37.005 118 47.8219 119 59.208 118C70.5941 117 81.9331 110.794 84.8268 106.5C86.4516 104.089 86.9311 97.8911 86.5429 95.2373C85.8729 90.6581 82.8028 87.3799 76.9572 85.0023C73.7853 83.712 70.0084 82.7312 61.2236 80.9161C47.5514 78.0912 42.8906 76.9996 36.5973 75.1487C29.1616 72.9615 23.8576 70.7186 18.9756 67.6969C8.26008 61.0646 2.13938 52.2451 1.02228 41.8271C-0.604408 26.6593 8.55268 13.2634 25.8174 5.55466Z" fill="#29A367"/>
</svg>
